<mxfile host="app.diagrams.net" modified="2023-09-14T18:07:35.019Z" agent="Mozilla/5.0 (Windows NT 10.0; Win64; x64; rv:109.0) Gecko/20100101 Firefox/118.0" version="21.2.3" etag="JvNQOiMJoX0cC3sIPYUg" type="github">
  <diagram name="Page-1" id="TMLrwyL-dQhqRrBeUKDN">
    <mxGraphModel>
      <root>
        <mxCell id="0" />
        <mxCell id="1" parent="0" />
      </root>
    </mxGraphModel>
  </diagram>
</mxfile>
